<svg width="5" height="10" viewBox="0 0 5 10" fill="none" xmlns="http://www.w3.org/2000/svg">
<path d="M4.51531 5.26561L0.765313 9.01561C0.712867 9.06811 0.646022 9.10388 0.57324 9.11837C0.500458 9.13286 0.425012 9.12544 0.356454 9.09703C0.287895 9.06862 0.229307 9.02051 0.188105 8.95879C0.146903 8.89707 0.124942 8.82451 0.125 8.7503V1.2503C0.124942 1.17608 0.146903 1.10352 0.188105 1.0418C0.229307 0.980079 0.287895 0.931969 0.356454 0.903562C0.425012 0.875155 0.500458 0.867728 0.57324 0.882222C0.646022 0.896716 0.712867 0.932479 0.765313 0.984983L4.51531 4.73498C4.55018 4.76981 4.57784 4.81117 4.59671 4.85669C4.61558 4.90222 4.62529 4.95101 4.62529 5.0003C4.62529 5.04958 4.61558 5.09837 4.59671 5.1439C4.57784 5.18942 4.55018 5.23078 4.51531 5.26561Z" fill="#525252"/>
</svg>
