<svg width="16" height="11" viewBox="0 0 16 11" fill="none" xmlns="http://www.w3.org/2000/svg">
<path d="M14.9565 1.34031L6.12321 10.1736C6.04498 10.2525 5.93848 10.2969 5.82738 10.2969C5.71628 10.2969 5.60978 10.2525 5.53154 10.1736L1.03988 5.68195C0.960993 5.60378 0.916626 5.49728 0.916626 5.38611C0.916626 5.27503 0.960993 5.16853 1.03988 5.09028L1.62321 4.50695C1.70144 4.42811 1.80794 4.3837 1.91904 4.3837C2.03014 4.3837 2.13664 4.42811 2.21488 4.50695L5.82321 8.11528L13.7815 0.156978C13.9464 -0.00284688 14.2084 -0.00284688 14.3732 0.156978L14.9565 0.748645C15.0355 0.826878 15.0798 0.933378 15.0798 1.04448C15.0798 1.15558 15.0355 1.26207 14.9565 1.34031Z" fill="#15803D"/>
</svg>
